<?xml version="1.0" encoding="UTF-8" standalone="no"?>
<!DOCTYPE svg PUBLIC "-//W3C//DTD SVG 1.1//EN"
 "http://www.w3.org/Graphics/SVG/1.1/DTD/svg11.dtd">
<!-- Generated by graphviz version 2.43.0 (0)
 -->
<!-- Title: %3 Pages: 1 -->
<svg width="968pt" height="476pt"
 viewBox="0.00 0.00 967.56 476.00" xmlns="http://www.w3.org/2000/svg" xmlns:xlink="http://www.w3.org/1999/xlink">
<g id="graph0" class="graph" transform="scale(1 1) rotate(0) translate(4 472)">
<title>%3</title>
<polygon fill="white" stroke="transparent" points="-4,4 -4,-472 963.56,-472 963.56,4 -4,4"/>
<!-- [root] aws_instance.public_instance (expand) -->
<g id="node1" class="node">
<title>[root] aws_instance.public_instance (expand)</title>
<polygon fill="none" stroke="black" points="543.73,-324 317.73,-324 317.73,-288 543.73,-288 543.73,-324"/>
<text text-anchor="middle" x="430.73" y="-302.3" font-family="Times,serif" font-size="14.00">aws_instance.public_instance</text>
</g>
<!-- [root] aws_subnet.public_subnet (expand) -->
<g id="node3" class="node">
<title>[root] aws_subnet.public_subnet (expand)</title>
<polygon fill="none" stroke="black" points="754.23,-252 551.23,-252 551.23,-216 754.23,-216 754.23,-252"/>
<text text-anchor="middle" x="652.73" y="-230.3" font-family="Times,serif" font-size="14.00">aws_subnet.public_subnet</text>
</g>
<!-- [root] aws_instance.public_instance (expand)&#45;&gt;[root] aws_subnet.public_subnet (expand) -->
<g id="edge1" class="edge">
<title>[root] aws_instance.public_instance (expand)&#45;&gt;[root] aws_subnet.public_subnet (expand)</title>
<path fill="none" stroke="black" d="M484.76,-287.97C516.18,-278.06 555.96,-265.51 588.92,-255.12"/>
<polygon fill="black" stroke="black" points="589.98,-258.46 598.47,-252.11 587.88,-251.78 589.98,-258.46"/>
</g>
<!-- [root] data.aws_key_pair.key (expand) -->
<g id="node5" class="node">
<title>[root] data.aws_key_pair.key (expand)</title>
<polygon fill="none" stroke="black" points="518.23,-252 343.23,-252 343.23,-216 518.23,-216 518.23,-252"/>
<text text-anchor="middle" x="430.73" y="-230.3" font-family="Times,serif" font-size="14.00">data.aws_key_pair.key</text>
</g>
<!-- [root] aws_instance.public_instance (expand)&#45;&gt;[root] data.aws_key_pair.key (expand) -->
<g id="edge2" class="edge">
<title>[root] aws_instance.public_instance (expand)&#45;&gt;[root] data.aws_key_pair.key (expand)</title>
<path fill="none" stroke="black" d="M430.73,-287.7C430.73,-279.98 430.73,-270.71 430.73,-262.11"/>
<polygon fill="black" stroke="black" points="434.23,-262.1 430.73,-252.1 427.23,-262.1 434.23,-262.1"/>
</g>
<!-- [root] aws_subnet.private_subnet (expand) -->
<g id="node2" class="node">
<title>[root] aws_subnet.private_subnet (expand)</title>
<polygon fill="none" stroke="black" points="773.23,-324 562.23,-324 562.23,-288 773.23,-288 773.23,-324"/>
<text text-anchor="middle" x="667.73" y="-302.3" font-family="Times,serif" font-size="14.00">aws_subnet.private_subnet</text>
</g>
<!-- [root] aws_subnet.private_subnet (expand)&#45;&gt;[root] aws_subnet.public_subnet (expand) -->
<g id="edge3" class="edge">
<title>[root] aws_subnet.private_subnet (expand)&#45;&gt;[root] aws_subnet.public_subnet (expand)</title>
<path fill="none" stroke="black" d="M664.03,-287.7C662.37,-279.98 660.39,-270.71 658.54,-262.11"/>
<polygon fill="black" stroke="black" points="661.92,-261.15 656.4,-252.1 655.07,-262.62 661.92,-261.15"/>
</g>
<!-- [root] aws_vpc.vpc_virginia (expand) -->
<g id="node4" class="node">
<title>[root] aws_vpc.vpc_virginia (expand)</title>
<polygon fill="none" stroke="black" points="807.23,-180 640.23,-180 640.23,-144 807.23,-144 807.23,-180"/>
<text text-anchor="middle" x="723.73" y="-158.3" font-family="Times,serif" font-size="14.00">aws_vpc.vpc_virginia</text>
</g>
<!-- [root] aws_subnet.public_subnet (expand)&#45;&gt;[root] aws_vpc.vpc_virginia (expand) -->
<g id="edge4" class="edge">
<title>[root] aws_subnet.public_subnet (expand)&#45;&gt;[root] aws_vpc.vpc_virginia (expand)</title>
<path fill="none" stroke="black" d="M670.28,-215.7C678.97,-207.14 689.6,-196.66 699.08,-187.3"/>
<polygon fill="black" stroke="black" points="701.72,-189.62 706.39,-180.1 696.81,-184.63 701.72,-189.62"/>
</g>
<!-- [root] var.subnets -->
<g id="node7" class="node">
<title>[root] var.subnets</title>
<polygon fill="none" stroke="black" points="616.23,-180 523.23,-180 523.23,-144 622.23,-144 622.23,-174 616.23,-180"/>
<polyline fill="none" stroke="black" points="616.23,-180 616.23,-174 "/>
<polyline fill="none" stroke="black" points="622.23,-174 616.23,-174 "/>
<text text-anchor="middle" x="572.73" y="-158.3" font-family="Times,serif" font-size="14.00">var.subnets</text>
</g>
<!-- [root] aws_subnet.public_subnet (expand)&#45;&gt;[root] var.subnets -->
<g id="edge5" class="edge">
<title>[root] aws_subnet.public_subnet (expand)&#45;&gt;[root] var.subnets</title>
<path fill="none" stroke="black" d="M632.96,-215.7C622.98,-206.97 610.72,-196.24 599.88,-186.75"/>
<polygon fill="black" stroke="black" points="602.11,-184.06 592.28,-180.1 597.5,-189.32 602.11,-184.06"/>
</g>
<!-- [root] provider[&quot;registry.terraform.io/hashicorp/aws&quot;] -->
<g id="node6" class="node">
<title>[root] provider[&quot;registry.terraform.io/hashicorp/aws&quot;]</title>
<polygon fill="none" stroke="black" points="430.73,-108 105.47,-90 430.73,-72 756,-90 430.73,-108"/>
<text text-anchor="middle" x="430.73" y="-86.3" font-family="Times,serif" font-size="14.00">provider[&quot;registry.terraform.io/hashicorp/aws&quot;]</text>
</g>
<!-- [root] aws_vpc.vpc_virginia (expand)&#45;&gt;[root] provider[&quot;registry.terraform.io/hashicorp/aws&quot;] -->
<g id="edge6" class="edge">
<title>[root] aws_vpc.vpc_virginia (expand)&#45;&gt;[root] provider[&quot;registry.terraform.io/hashicorp/aws&quot;]</title>
<path fill="none" stroke="black" d="M652.43,-143.97C605.56,-132.77 544.6,-118.2 498.47,-107.18"/>
<polygon fill="black" stroke="black" points="499.11,-103.74 488.57,-104.82 497.48,-110.54 499.11,-103.74"/>
</g>
<!-- [root] var.virginia_cidr -->
<g id="node9" class="node">
<title>[root] var.virginia_cidr</title>
<polygon fill="none" stroke="black" points="899.73,-108 773.73,-108 773.73,-72 905.73,-72 905.73,-102 899.73,-108"/>
<polyline fill="none" stroke="black" points="899.73,-108 899.73,-102 "/>
<polyline fill="none" stroke="black" points="905.73,-102 899.73,-102 "/>
<text text-anchor="middle" x="839.73" y="-86.3" font-family="Times,serif" font-size="14.00">var.virginia_cidr</text>
</g>
<!-- [root] aws_vpc.vpc_virginia (expand)&#45;&gt;[root] var.virginia_cidr -->
<g id="edge7" class="edge">
<title>[root] aws_vpc.vpc_virginia (expand)&#45;&gt;[root] var.virginia_cidr</title>
<path fill="none" stroke="black" d="M752.11,-143.88C767.28,-134.72 786.14,-123.34 802.47,-113.48"/>
<polygon fill="black" stroke="black" points="804.49,-116.35 811.25,-108.19 800.88,-110.36 804.49,-116.35"/>
</g>
<!-- [root] data.aws_key_pair.key (expand)&#45;&gt;[root] provider[&quot;registry.terraform.io/hashicorp/aws&quot;] -->
<g id="edge8" class="edge">
<title>[root] data.aws_key_pair.key (expand)&#45;&gt;[root] provider[&quot;registry.terraform.io/hashicorp/aws&quot;]</title>
<path fill="none" stroke="black" d="M430.73,-215.87C430.73,-191.67 430.73,-147.21 430.73,-118.39"/>
<polygon fill="black" stroke="black" points="434.23,-118.19 430.73,-108.19 427.23,-118.19 434.23,-118.19"/>
</g>
<!-- [root] var.tags -->
<g id="node8" class="node">
<title>[root] var.tags</title>
<polygon fill="none" stroke="black" points="461.73,-36 393.73,-36 393.73,0 467.73,0 467.73,-30 461.73,-36"/>
<polyline fill="none" stroke="black" points="461.73,-36 461.73,-30 "/>
<polyline fill="none" stroke="black" points="467.73,-30 461.73,-30 "/>
<text text-anchor="middle" x="430.73" y="-14.3" font-family="Times,serif" font-size="14.00">var.tags</text>
</g>
<!-- [root] provider[&quot;registry.terraform.io/hashicorp/aws&quot;]&#45;&gt;[root] var.tags -->
<g id="edge12" class="edge">
<title>[root] provider[&quot;registry.terraform.io/hashicorp/aws&quot;]&#45;&gt;[root] var.tags</title>
<path fill="none" stroke="black" d="M430.73,-71.7C430.73,-63.98 430.73,-54.71 430.73,-46.11"/>
<polygon fill="black" stroke="black" points="434.23,-46.1 430.73,-36.1 427.23,-46.1 434.23,-46.1"/>
</g>
<!-- [root] output.ec2_public_ip (expand) -->
<g id="node10" class="node">
<title>[root] output.ec2_public_ip (expand)</title>
<ellipse fill="none" stroke="black" cx="178.73" cy="-378" rx="178.97" ry="18"/>
<text text-anchor="middle" x="178.73" y="-374.3" font-family="Times,serif" font-size="14.00">[root] output.ec2_public_ip (expand)</text>
</g>
<!-- [root] output.ec2_public_ip (expand)&#45;&gt;[root] aws_instance.public_instance (expand) -->
<g id="edge9" class="edge">
<title>[root] output.ec2_public_ip (expand)&#45;&gt;[root] aws_instance.public_instance (expand)</title>
<path fill="none" stroke="black" d="M236.55,-360.94C273.12,-350.78 320.66,-337.58 359.54,-326.78"/>
<polygon fill="black" stroke="black" points="360.53,-330.13 369.23,-324.08 358.66,-323.39 360.53,-330.13"/>
</g>
<!-- [root] provider[&quot;registry.terraform.io/hashicorp/aws&quot;] (close) -->
<g id="node11" class="node">
<title>[root] provider[&quot;registry.terraform.io/hashicorp/aws&quot;] (close)</title>
<ellipse fill="none" stroke="black" cx="667.73" cy="-378" rx="291.65" ry="18"/>
<text text-anchor="middle" x="667.73" y="-374.3" font-family="Times,serif" font-size="14.00">[root] provider[&quot;registry.terraform.io/hashicorp/aws&quot;] (close)</text>
</g>
<!-- [root] provider[&quot;registry.terraform.io/hashicorp/aws&quot;] (close)&#45;&gt;[root] aws_instance.public_instance (expand) -->
<g id="edge10" class="edge">
<title>[root] provider[&quot;registry.terraform.io/hashicorp/aws&quot;] (close)&#45;&gt;[root] aws_instance.public_instance (expand)</title>
<path fill="none" stroke="black" d="M611.27,-360.32C577.35,-350.31 534,-337.5 498.27,-326.95"/>
<polygon fill="black" stroke="black" points="499,-323.51 488.41,-324.04 497.01,-330.23 499,-323.51"/>
</g>
<!-- [root] provider[&quot;registry.terraform.io/hashicorp/aws&quot;] (close)&#45;&gt;[root] aws_subnet.private_subnet (expand) -->
<g id="edge11" class="edge">
<title>[root] provider[&quot;registry.terraform.io/hashicorp/aws&quot;] (close)&#45;&gt;[root] aws_subnet.private_subnet (expand)</title>
<path fill="none" stroke="black" d="M667.73,-359.7C667.73,-351.98 667.73,-342.71 667.73,-334.11"/>
<polygon fill="black" stroke="black" points="671.23,-334.1 667.73,-324.1 664.23,-334.1 671.23,-334.1"/>
</g>
<!-- [root] root -->
<g id="node12" class="node">
<title>[root] root</title>
<ellipse fill="none" stroke="black" cx="422.73" cy="-450" rx="58.49" ry="18"/>
<text text-anchor="middle" x="422.73" y="-446.3" font-family="Times,serif" font-size="14.00">[root] root</text>
</g>
<!-- [root] root&#45;&gt;[root] output.ec2_public_ip (expand) -->
<g id="edge13" class="edge">
<title>[root] root&#45;&gt;[root] output.ec2_public_ip (expand)</title>
<path fill="none" stroke="black" d="M381.34,-437.13C343.93,-426.39 288.2,-410.4 244.66,-397.91"/>
<polygon fill="black" stroke="black" points="245.58,-394.54 235,-395.14 243.65,-401.26 245.58,-394.54"/>
</g>
<!-- [root] root&#45;&gt;[root] provider[&quot;registry.terraform.io/hashicorp/aws&quot;] (close) -->
<g id="edge14" class="edge">
<title>[root] root&#45;&gt;[root] provider[&quot;registry.terraform.io/hashicorp/aws&quot;] (close)</title>
<path fill="none" stroke="black" d="M464.02,-437.2C501.04,-426.63 556.07,-410.9 599.61,-398.46"/>
<polygon fill="black" stroke="black" points="600.62,-401.81 609.28,-395.7 598.7,-395.08 600.62,-401.81"/>
</g>
</g>
</svg>
